<svg width="733" height="214" viewBox="0 0 733 214" fill="none" xmlns="http://www.w3.org/2000/svg">
<path d="M363.425 173.672C363.425 176.732 364.665 178.672 367.155 179.462H370.695L370.575 190.792H366.575C365.72 190.68 364.875 190.506 364.045 190.272C363.221 190.041 362.441 189.676 361.735 189.192C360.925 188.619 360.215 187.917 359.635 187.112C358.872 186.036 358.257 184.862 357.805 183.622C357.417 184.792 356.893 185.913 356.245 186.962C355.762 187.734 355.161 188.426 354.465 189.012C353.883 189.491 353.224 189.866 352.515 190.122C351.834 190.371 351.131 190.555 350.415 190.672C349.918 190.74 349.417 190.77 348.915 190.762L345.795 190.822C344.585 190.822 343.345 190.822 342.065 190.822H337.925C336.966 190.826 336.009 190.745 335.065 190.582C334.15 190.413 333.275 190.074 332.485 189.582C331.575 189.001 330.782 188.255 330.145 187.382C329.292 186.215 328.596 184.941 328.075 183.592C327.687 184.762 327.163 185.883 326.515 186.932C326.033 187.696 325.444 188.386 324.765 188.982C324.197 189.464 323.546 189.84 322.845 190.092C322.163 190.341 321.461 190.525 320.745 190.642C318.447 190.823 316.14 190.883 313.835 190.822H304.225V194.552C304.225 198.372 303.715 201.245 302.695 203.172C302.195 204.121 301.493 204.948 300.637 205.594C299.782 206.241 298.794 206.691 297.745 206.912C295.009 207.397 292.233 207.618 289.455 207.572H254.375V145.862H266.565V190.462C266.565 193.632 267.855 195.522 270.415 196.122H288.315C290.835 195.456 292.095 193.569 292.095 190.462V145.742H304.225V179.372H315.035C315.955 179.372 316.635 179.292 317.035 179.252C317.352 179.233 317.664 179.173 317.965 179.072C320.285 178.299 321.445 176.449 321.445 173.522V145.862H333.575V173.642C333.575 176.702 334.815 178.642 337.305 179.432H341.205H342.735C343.402 179.432 344.068 179.402 344.735 179.342L346.635 179.222C347.06 179.209 347.483 179.149 347.895 179.042C348.978 178.752 349.91 178.063 350.505 177.112C351.054 176.009 351.312 174.783 351.255 173.552V145.892H363.445L363.425 173.672Z" fill="#3B8D49"/>
<path d="M369.617 179.34H396.347V190.85H369.617V179.34Z" fill="#3B8D49"/>
<path d="M461.087 171.082C461.087 168.268 460.168 166.238 458.328 164.991C457.717 164.613 457.037 164.358 456.328 164.241C455.352 164.088 454.365 164.018 453.377 164.031H401.607V151.382C408.061 147.242 414.367 143.142 420.527 139.082C426.687 135.022 432.974 130.945 439.387 126.852L446.717 134.201L418.308 152.461H458.427C460.107 152.461 461.587 152.522 462.867 152.642C464.157 152.762 465.218 152.902 466.058 153.062C467.182 153.192 468.262 153.574 469.218 154.18C470.174 154.786 470.98 155.6 471.578 156.562C472.698 158.452 473.268 161.362 473.268 165.302V179.302H478.367V190.812H395.367V179.302L461.127 179.362L461.087 171.082Z" fill="#3B8D49"/>
<path d="M477.664 190.851V179.341L485.234 179.101C486.328 178.8 487.276 178.115 487.904 177.17C488.497 176.06 488.777 174.808 488.714 173.551V145.891H500.844V173.67C500.778 174.978 501.091 176.276 501.744 177.41C502.453 178.386 503.471 179.091 504.634 179.41H510.994V190.74H503.994C503.139 190.628 502.294 190.454 501.464 190.22C500.64 189.989 499.86 189.625 499.154 189.141C498.344 188.568 497.635 187.865 497.054 187.061C496.291 185.984 495.676 184.81 495.224 183.571C494.836 184.741 494.312 185.861 493.664 186.91C493.178 187.68 492.577 188.371 491.884 188.96C491.302 189.439 490.643 189.814 489.934 190.071C489.253 190.319 488.55 190.503 487.834 190.621C487.11 190.733 486.377 190.783 485.644 190.771C484.504 190.771 482.964 190.771 481.044 190.771L477.664 190.851ZM491.954 207.541H479.764V197.901H491.954V207.541ZM509.374 207.541H497.244V197.901H509.374V207.541Z" fill="#3B8D49"/>
<path d="M510.338 179.342H516.338V158.732C516.338 154.832 516.888 151.929 517.988 150.022C518.565 149.057 519.355 148.237 520.298 147.625C521.241 147.014 522.312 146.626 523.428 146.492C524.486 146.266 525.558 146.116 526.638 146.042C527.898 145.942 529.368 145.892 531.048 145.892H564.448L564.388 177.952C564.412 179.678 564.272 181.403 563.968 183.102C563.744 184.373 563.308 185.596 562.678 186.722C562.124 187.675 561.349 188.481 560.418 189.072C559.4 189.69 558.283 190.129 557.118 190.372H557.178C556.163 190.6 555.128 190.731 554.088 190.762C552.828 190.822 551.308 190.852 549.548 190.852H510.328L510.338 179.342ZM535.988 157.282C534.788 157.282 533.768 157.322 532.928 157.402C532.088 157.482 531.458 157.562 531.058 157.642C530.647 157.795 530.27 158.028 529.951 158.329C529.631 158.629 529.375 158.991 529.198 159.392C528.67 160.544 528.423 161.806 528.478 163.072V173.792C528.462 174.729 528.522 175.665 528.658 176.592C528.734 177.203 528.984 177.779 529.378 178.252C529.783 178.683 530.304 178.988 530.878 179.132C531.706 179.338 532.555 179.449 533.408 179.462H544.698C546.28 179.51 547.861 179.305 549.378 178.852C549.916 178.7 550.416 178.434 550.842 178.072C551.269 177.709 551.611 177.259 551.848 176.752C551.977 176.367 552.078 175.972 552.148 175.572C552.237 174.983 552.278 174.388 552.268 173.792V157.282H535.988ZM545.898 139.562H533.768V129.922H545.898V139.562Z" fill="#3B8D49"/>
<path d="M618.564 200.19C618.587 201.915 618.456 203.639 618.174 205.341C617.969 206.612 617.543 207.837 616.914 208.96C616.361 209.911 615.59 210.717 614.664 211.311C613.629 211.935 612.492 212.372 611.305 212.601H611.364C608.856 212.943 606.325 213.083 603.794 213.021H594.604V201.69H602.475C603.677 201.481 604.752 200.814 605.475 199.831C606.162 198.643 606.485 197.28 606.404 195.91V190.851H585.144C583.464 190.851 581.984 190.85 580.694 190.76C579.644 190.73 578.6 190.6 577.575 190.371H577.634C576.468 190.128 575.353 189.688 574.334 189.071C573.401 188.473 572.628 187.656 572.084 186.69C571.448 185.548 571.018 184.302 570.814 183.01C570.533 181.299 570.402 179.565 570.424 177.831V158.73C570.424 154.83 570.978 151.927 572.084 150.021C572.66 149.057 573.449 148.238 574.39 147.626C575.331 147.014 576.4 146.626 577.515 146.49C578.562 146.26 579.624 146.11 580.694 146.041C581.984 145.941 583.464 145.891 585.144 145.891H618.535V179.341H623.644V190.851H618.535L618.564 200.19ZM590.154 157.281C588.914 157.281 587.884 157.321 587.064 157.401C586.244 157.481 585.634 157.561 585.234 157.641C584.823 157.793 584.446 158.027 584.127 158.327C583.807 158.628 583.552 158.989 583.374 159.391C582.846 160.543 582.599 161.804 582.654 163.071V173.67C582.654 177.45 584.254 179.341 587.454 179.341H606.454V157.281H590.154Z" fill="#3B8D49"/>
<path d="M622.594 179.34H649.314V190.85H622.594V179.34Z" fill="#3B8D49"/>
<path d="M667.937 173.672C667.871 174.979 668.184 176.278 668.837 177.412C669.529 178.377 670.526 179.081 671.667 179.412L676.107 179.352V190.742H671.247C667.68 190.209 664.757 187.055 662.477 181.282C661.708 183.627 660.549 185.824 659.047 187.782C658.03 189.172 656.57 190.174 654.907 190.622C654.827 190.622 654.787 190.642 654.787 190.682H654.907L655.207 190.742V190.802H648.297V179.352C649.177 179.272 650.017 179.212 650.827 179.172C651.309 179.162 651.79 179.122 652.267 179.052C654.627 178.279 655.807 176.429 655.807 173.502V131.082H667.937V173.672Z" fill="#3B8D49"/>
<path d="M675.143 179.342H681.143V158.732C681.143 154.832 681.693 151.929 682.793 150.022C683.369 149.058 684.157 148.24 685.099 147.628C686.04 147.016 687.109 146.627 688.223 146.492C689.285 146.267 690.36 146.116 691.443 146.042C692.703 145.942 694.173 145.892 695.853 145.892H729.253L729.193 177.952C729.212 179.678 729.072 181.402 728.773 183.102C728.542 184.372 728.103 185.595 727.473 186.722C726.923 187.675 726.151 188.481 725.223 189.072C724.205 189.69 723.089 190.129 721.923 190.372H721.983C720.968 190.6 719.933 190.731 718.893 190.762C717.623 190.822 716.113 190.852 714.353 190.852H675.133L675.143 179.342ZM700.793 157.282C699.593 157.282 698.563 157.282 697.723 157.402C696.883 157.522 696.263 157.562 695.863 157.642C695.451 157.795 695.075 158.028 694.756 158.329C694.436 158.629 694.18 158.991 694.003 159.392C693.475 160.544 693.228 161.806 693.283 163.072V173.792C693.267 174.729 693.327 175.665 693.463 176.592C693.539 177.203 693.789 177.779 694.183 178.252C694.589 178.683 695.109 178.988 695.683 179.132C696.508 179.338 697.353 179.448 698.203 179.462H709.503C711.086 179.51 712.666 179.305 714.183 178.852C714.721 178.702 715.22 178.436 715.645 178.074C716.07 177.711 716.41 177.26 716.643 176.752C716.777 176.368 716.877 175.973 716.943 175.572C717.032 174.983 717.073 174.388 717.063 173.792V157.282H700.793ZM710.703 139.562H698.563V129.922H710.703V139.562Z" fill="#3B8D49"/>
<path d="M2.4031 207.538H52.1902L87.7962 126.75L141.304 126.419L180.607 84.9922H98.3888L30.5259 133.779L0.203839 204.172C0.0427049 204.537 -0.0246147 204.937 0.008017 205.335C0.0406487 205.734 0.171875 206.117 0.390374 206.451C0.608873 206.786 0.907373 207.06 1.25885 207.25C1.61033 207.44 2.00371 207.538 2.4031 207.538Z" fill="#3B8D49"/>
<path d="M183.629 44.3352L223.559 3.23047H97.8803L46.3315 44.3352L40.4609 58.3016L68.782 107.766L94.6224 44.3352H183.629Z" fill="#3B8D49"/>
<path d="M85.4219 207.539H142.204L113.817 164.449L85.4219 207.539Z" fill="#222222"/>
<path d="M274.678 57.5198V97.2197H253.148V3.08984H326.418V19.5298H274.678V40.9397H319.908V57.5198H274.678Z" fill="#222222"/>
<path d="M336.797 97.2197V3.08984H358.327V80.0898H409.327V97.2498L336.797 97.2197Z" fill="#222222"/>
<path d="M412.547 51C412.547 19.11 430.357 0 461.957 0C493.557 0 511.067 19.14 511.067 51.46C511.067 83.78 493.557 100.46 461.957 100.46C430.357 100.46 412.547 82.76 412.547 51ZM489.837 51.4299C489.837 29.1699 479.927 17.4299 461.957 17.4299C443.987 17.4299 433.767 29.1899 433.767 51.4299C433.767 73.6699 444.147 83.6101 461.957 83.6101C477.447 83.6101 489.837 73.6799 489.837 51.4299Z" fill="#222222"/>
<path d="M544.084 97.2197L509.234 3.08984H532.084L554.555 69.1499L576.854 3.08984H599.165L564.314 97.2197H544.084Z" fill="#222222"/>
<path d="M609.586 97.2197V3.08984H631.086V97.2197H609.586Z" fill="#222222"/>
<path d="M706.556 97.2197L686.886 64.8899L666.086 97.2197H641.086L674.386 49.1597L642.936 3.08984H668.346L686.936 33.5698L705.676 3.08984H730.616L699.276 48.2798L732.736 97.1897L706.556 97.2197Z" fill="#222222"/>
</svg>
